<svg width="300" height="300" xmlns="http://www.w3.org/2000/svg">
 <g>
  <title>Layer 1</title>
  <g id="svg_4">
   <path id="svg_2" d="m92.1951,47.42425s-14.27267,25.82684 -27.73509,28.44088s-27.87364,-6.79202 -27.87364,-6.79202l-3.71136,-0.02781c-9.10648,-0.06816 20.11928,75.64036 46.64516,113.74981s70.35074,75.88919 70.35074,75.88919s-43.41501,-131.38616 -48.21996,-164.72415s2.67616,-43.27594 2.63808,-47.40042s-0.05128,-2.32625 -0.05128,-2.32625l-12.04262,3.19078l0,0l0,-0.00001z" fill="#ffffff" stroke="#9e9e9e" stroke-width="0"/>
   <path id="svg_3" d="m205.55047,48.86502s14.27829,25.53366 27.59705,28.05319s27.49258,-6.88553 27.49258,-6.88553l3.66662,-0.04759c8.99672,-0.11672 -19.35965,75.11575 -45.30612,113.0493s-68.98654,75.63348 -68.98654,75.63348s41.99394,-130.52059 46.51284,-163.60545s-2.76531,-46.56959 -2.76531,-46.56959l-0.29691,-3.14659l12.08578,3.51881l0,0l0,0l0,0l0,0l0,-0.00001z" fill="#ffffff" stroke="#fc003f" stroke-width="0"/>
  </g>
 </g>

</svg>