<?xml version="1.0" standalone="no"?>
<!DOCTYPE svg PUBLIC "-//W3C//DTD SVG 20010904//EN"
 "http://www.w3.org/TR/2001/REC-SVG-20010904/DTD/svg10.dtd">
<svg version="1.0" xmlns="http://www.w3.org/2000/svg"
 width="300.000000pt" height="300.000000pt" viewBox="0 0 300.000000 300.000000"
 preserveAspectRatio="xMidYMid meet">
<metadata>
Created by potrace 1.14, written by Peter Selinger 2001-2017
</metadata>
<g transform="translate(0.000000,300.000000) scale(0.100000,-0.100000)"
fill="#000000" stroke="none">
<path d="M1075 2439 c-11 -4 -38 -13 -60 -18 -31 -8 -46 -20 -67 -54 -69 -109
-162 -196 -230 -215 -60 -17 -164 0 -240 39 -54 28 -86 25 -94 -7 -21 -84 175
-561 355 -864 60 -100 152 -234 176 -255 6 -5 17 -19 25 -31 65 -94 410 -440
575 -577 l30 -25 75 66 c91 81 387 377 451 453 160 187 260 343 387 602 123
251 222 520 222 603 0 49 -30 59 -90 29 -64 -32 -126 -48 -193 -47 -47 0 -66
6 -106 32 -52 33 -113 99 -169 181 -33 49 -38 51 -134 75 -33 7 -32 8 -14 -45
46 -130 42 -360 -11 -561 -8 -30 -16 -62 -18 -70 -35 -158 -391 -1297 -402
-1286 -4 4 -148 433 -211 626 -137 426 -207 662 -243 831 -29 134 -31 323 -5
419 30 110 30 115 -9 99z"/>
</g>
</svg>
